# xmcd
#
# Track frame offsets:
# 150
# 20627
# 35855
# 54686
# 73165
# 86517
# 108128
# 130654
# 150089
# 169014
# 190672
# 207911
# 231035
# 252259
#
# Disc length: 3625 seconds
#
# Revision: 0
# Processed by: cddbd v1.4PL0 Copyright (c) Steve Scherf et al.
# Submitted via: Audion 2.6.0 (http://www.panic.com/audion/)
#
DISCID=b40e270e
DTITLE=Jewel - This Way
DYEAR=1900
DGENRE=
TTITLE0=Standing Still
TTITLE1=Jesus Loves You
TTITLE2=Everybody Needs Someone Sometimes
TTITLE3=Break Me
TTITLE4=Do You Want To Play
TTITLE5=Till We Run Out Of Road
TTITLE6=Serve The Ego
TTITLE7=This Way
TTITLE8=Cleveland
TTITLE9=I Wont Walk Away
TTITLE10=Love Me Just Leave Me Alone
TTITLE11=The New Wild West
TTITLE12=Grey Matter
TTITLE13=Sometimes It Be That Way
EXTD=
EXTT0=
EXTT1=
EXTT2=
EXTT3=
EXTT4=
EXTT5=
EXTT6=
EXTT7=
EXTT8=
EXTT9=
EXTT10=
EXTT11=
EXTT12=
EXTT13=
PLAYORDER=
